<svg width="19" height="19" viewBox="0 0 19 19" fill="none" xmlns="http://www.w3.org/2000/svg">
<path d="M4.34417 8.34042C5.72417 11.0525 7.9475 13.2758 10.6596 14.6558L12.7679 12.5475C13.0362 12.2792 13.41 12.2025 13.7454 12.3079C14.8188 12.6625 15.9688 12.8542 17.1667 12.8542C17.4208 12.8542 17.6646 12.9551 17.8443 13.1349C18.024 13.3146 18.125 13.5583 18.125 13.8125V17.1667C18.125 17.4208 18.024 17.6646 17.8443 17.8443C17.6646 18.024 17.4208 18.125 17.1667 18.125C12.8458 18.125 8.702 16.4086 5.64672 13.3533C2.59144 10.298 0.875 6.15415 0.875 1.83333C0.875 1.57917 0.975967 1.33541 1.15569 1.15569C1.33541 0.975967 1.57917 0.875 1.83333 0.875H5.1875C5.44167 0.875 5.68542 0.975967 5.86514 1.15569C6.04487 1.33541 6.14583 1.57917 6.14583 1.83333C6.14583 3.03125 6.3375 4.18125 6.69208 5.25458C6.7975 5.59 6.72083 5.96375 6.4525 6.23208L4.34417 8.34042Z" fill="#456BB4"/>
</svg>
